# xmcd
#
# Track frame offsets: 
#        150
#        16917
#        34895
#        57397
#        70477
#        90760
#        110902
#        123840
#        135100
#        154400
#        172560
#        183085
#        194777
#
# Disc length: 2814 seconds
#
# Revision: 4
# Processed by: cddbd v1.5.2PL0 Copyright (c) Steve Scherf et al.
# Submitted via: ExactAudioCopy v1.0b3
#
DISCID=a60afc0d
DTITLE=くるり - NIKKI
DYEAR=2005
DGENRE=Alternative Rock
TTITLE0=Bus To Finsbury
TTITLE1=Baby I Love You
TTITLE2=Superstar (Album Edit)
TTITLE3=雨上がり
TTITLE4=Tonight Is The Night
TTITLE5=Birthday
TTITLE6=お祭りわっしょい
TTITLE7=冬の亡霊
TTITLE8=赤い電車
TTITLE9=Long Tall Sally
TTITLE10=虹色の天使
TTITLE11=Ring Ring Ring!
TTITLE12=(It's Only) R'n R Workshop?
EXTD=YEAR: 2005
EXTT0=
EXTT1=
EXTT2=
EXTT3=
EXTT4=
EXTT5=
EXTT6=
EXTT7=
EXTT8=
EXTT9=
EXTT10=
EXTT11=
EXTT12=
PLAYORDER=
